<?xml version="1.0" encoding="utf-8"?>
<!-- Generator: Adobe Illustrator 21.0.2, SVG Export Plug-In . SVG Version: 6.00 Build 0)  -->
<svg version="1.1" id="Layer_1" xmlns="http://www.w3.org/2000/svg" xmlns:xlink="http://www.w3.org/1999/xlink" x="0px" y="0px"
	 viewBox="0 0 223.8 59.1" style="enable-background:new 0 0 223.8 59.1;" xml:space="preserve">
<style type="text/css">
	.st0{fill:#283889;}
	.st1{fill:#00BED6;}
</style>
<path class="st0" d="M0,26v21.8c0,2.5,1,4.2,4.1,4.2h44c3.1,0,4.1-1.7,4.1-4.2V26H0z"/>
<path class="st1" d="M48.1,0h-44C1,0,0,1.7,0,4.2V26h52.2V4.2C52.2,1.7,51.2,0,48.1,0z"/>
<g>
	<path class="st0" d="M85.4,21.1c3.3,0,5.7,0.9,7.1,2.8c1.5,1.8,2.2,5.1,2.2,9.8c0,4.7-0.9,7.9-2.6,9.8c-1.7,1.8-4.8,2.8-9.1,2.8
		c-1.5,0-3.9-0.1-7.2-0.4l-1.6-0.1V11.6h5.2v10.9C81.6,21.5,83.6,21.1,85.4,21.1z M83,41.5c2.6,0,4.3-0.6,5.1-1.8
		c0.8-1.2,1.3-3.2,1.3-6.1c0-2.9-0.4-4.9-1.1-6.1c-0.7-1.2-1.9-1.8-3.5-1.8c-1.5,0-3.1,0.2-4.6,0.7l-0.8,0.2v14.6
		C81.2,41.4,82.4,41.5,83,41.5z"/>
	<path class="st0" d="M98.8,45.6v-34h5.2v34H98.8z"/>
	<path class="st0" d="M123.8,21.6h5.2v24h-5.2v-1.5c-2.3,1.3-4.5,2-6.5,2c-3.3,0-5.5-0.9-6.6-2.7c-1.1-1.8-1.7-4.9-1.7-9.3V21.6h5.2
		v12.6c0,2.9,0.2,4.8,0.7,5.8c0.5,1,1.6,1.5,3.4,1.5c1.7,0,3.3-0.3,4.8-1l0.7-0.3V21.6z"/>
	<path class="st0" d="M150.9,41.3l1.3-0.1l0.1,3.9c-3.6,0.7-6.9,1.1-9.7,1.1c-3.6,0-6.1-1-7.7-2.9c-1.6-2-2.3-5.1-2.3-9.4
		c0-8.5,3.5-12.8,10.4-12.8c6.7,0,10.1,3.7,10.1,11l-0.3,3.7H138c0,2,0.5,3.4,1.3,4.4c0.8,0.9,2.4,1.4,4.7,1.4
		C146.2,41.6,148.5,41.5,150.9,41.3z M148,31.8c0-2.4-0.4-4-1.1-5c-0.8-0.9-2-1.4-3.8-1.4s-3.1,0.5-3.9,1.5c-0.8,1-1.2,2.6-1.3,4.9
		H148z"/>
	<path class="st0" d="M165.8,21.1c1.7,0,3.7,0.2,6,0.7L173,22l-0.2,4.1c-2.5-0.3-4.4-0.4-5.6-0.4c-2.4,0-4.1,0.5-4.9,1.6
		c-0.8,1.1-1.2,3.1-1.2,6.1c0,3,0.4,5.1,1.2,6.2c0.8,1.2,2.5,1.7,5,1.7l5.6-0.4l0.1,4.2c-3.2,0.6-5.7,0.9-7.3,0.9
		c-3.6,0-6.2-1-7.7-3c-1.5-2-2.2-5.2-2.2-9.7c0-4.5,0.8-7.7,2.4-9.6C159.6,22,162.2,21.1,165.8,21.1z"/>
	<path class="st0" d="M194.3,29v10.9c0,0.7,0.2,1.2,0.6,1.6c0.3,0.3,0.9,0.6,1.6,0.6l-0.1,4c-2.8,0-4.9-0.6-6.4-1.8
		c-2.6,1.2-5.1,1.8-7.7,1.8c-4.8,0-7.2-2.5-7.2-7.6c0-2.4,0.6-4.2,1.9-5.3s3.3-1.7,6-2l6.2-0.5V29c0-1.3-0.3-2.2-0.8-2.7
		c-0.6-0.5-1.4-0.8-2.5-0.8c-2,0-4.6,0.1-7.7,0.4l-1.5,0.1l-0.2-3.7c3.5-0.8,6.7-1.2,9.6-1.2c2.9,0,5,0.6,6.3,1.9
		C193.7,24.2,194.3,26.2,194.3,29z M183.6,34.9c-2.2,0.2-3.3,1.4-3.3,3.6s1,3.3,2.9,3.3c1.6,0,3.3-0.3,5.1-0.8l0.9-0.3v-6.4
		L183.6,34.9z"/>
	<path class="st0" d="M199.5,55.9V21.6h5.2v1.5c2.2-1.3,4.3-2,6.2-2c3.2,0,5.5,1,7,2.9c1.5,1.9,2.2,5.2,2.2,9.7
		c0,4.6-0.8,7.8-2.5,9.6c-1.7,1.9-4.4,2.8-8.2,2.8c-1.3,0-2.8-0.1-4.6-0.4v10.2H199.5z M209.9,25.7c-1.5,0-3,0.3-4.5,1l-0.7,0.3
		v14.2c1.3,0.3,2.7,0.4,4.2,0.4c2.2,0,3.7-0.6,4.5-1.9c0.8-1.2,1.2-3.4,1.2-6.4C214.7,28.3,213.1,25.7,209.9,25.7z"/>
</g>
</svg>
