<?xml version="1.0" encoding="utf-8"?>
<!-- Generator: Adobe Illustrator 21.0.0, SVG Export Plug-In . SVG Version: 6.00 Build 0)  -->
<svg version="1.1" xmlns="http://www.w3.org/2000/svg" xmlns:xlink="http://www.w3.org/1999/xlink" x="0px" y="0px"
	 viewBox="0 0 600 600" style="enable-background:new 0 0 600 600;" xml:space="preserve">
<style type="text/css">
	.st0{fill:#04FAFA;}
	.st1{fill:#01464D;}
</style>
<g id="Layer_1">
	<circle class="st0" cx="300" cy="300" r="300"/>
</g>
<g id="Layer_2">
	<g>
		<g>
			<path class="st1" d="M271.1,409.5c32.5-3.7,34-5.2,34-35.5c0.1-49.9,0.1-99.7,0-149.6c0-31.6-0.9-32.5-31.9-36.7
				c-6.6-25.2-5-27.5,19.5-27.5c39.4,0,78.9-0.4,118.3,0.1c78.9,1,119.7,39.1,125.7,118c1.3,17.8,0.8,36.1-2.1,53.7
				c-10.2,61.2-46.3,96.3-108.4,100.9c-47.9,3.5-96.1,2.4-144.2,2C262.8,434.8,272.9,419.8,271.1,409.5z M480.1,300.3
				c-1.4-19.6-1.8-34-3.5-48.4c-4.7-39.4-25.8-58.8-65.1-60.2c-11.6-0.4-23.2,0.5-34.7-0.4c-12.3-0.9-15.8,4.1-15.7,16
				c0.5,51.5,0.2,103,0.2,154.5c0,46.9,0,46.9,48,43.6c33-2.3,54.5-18.2,62.7-50.2C476.9,335.9,478,315.4,480.1,300.3z"/>
			<path class="st1" d="M77.3,316.7c0-54.5,0-104.2,0-155.4c8.7-0.4,16.6-1,24.5-1.1c41.7-0.1,83.5,0.3,125.2-0.2
				c11.8-0.1,16.8,3.2,16.2,15.7c-0.9,17.3-0.2,34.6-0.2,53.4c-10.9,0-20.3,0-29.6,0c-6.3-26.4-6.6-26.7-33.5-26.8
				c-19.1-0.1-38.3-0.6-57.4,0.5c-4.3,0.2-11.5,6.2-11.7,9.9c-1.2,20.1-0.6,40.3-0.6,56.7c28.5-0.3,55.6-3.9,81.7-0.1
				c37.3,5.4,58.2,30.2,63.4,66.3c5.4,37.9-9.2,72.6-40.9,88.7c-41.2,21-83.8,20.5-125.6,0.9c-15.4-7.2-25.6-19.7-26.3-38
				c-0.5-14.6,7.1-23.2,20.9-25.3c14.2-2.2,26,2.6,28.6,18.2c2.4,14.8,1.1,29.6,23.9,29.3c28.9-0.3,49.5-10.1,58.1-32.2
				c9.6-24.5,4.1-55.4-12.2-69.6c-18.6-16.1-56.2-17.3-82.3-2.7C93.2,308.5,86.8,311.7,77.3,316.7z"/>
		</g>
	</g>
</g>
</svg>
