<?xml version="1.0" encoding="utf-8"?>
<!-- Generator: Adobe Illustrator 21.0.0, SVG Export Plug-In . SVG Version: 6.00 Build 0)  -->
<svg version="1.1" xmlns="http://www.w3.org/2000/svg" xmlns:xlink="http://www.w3.org/1999/xlink" x="0px" y="0px"
	 viewBox="0 0 600 600" style="enable-background:new 0 0 600 600;" xml:space="preserve">
<style type="text/css">
	.st0{fill:url(#SVGID_1_);stroke:url(#SVGID_2_);stroke-miterlimit:10;}
	.st1{fill:#FFFFFF;}
</style>
<g id="Layer_2">
	<linearGradient id="SVGID_1_" gradientUnits="userSpaceOnUse" x1="300" y1="0" x2="300" y2="600">
		<stop  offset="0" style="stop-color:#0BA0FF"/>
		<stop  offset="0.6087" style="stop-color:#045BD6"/>
		<stop  offset="1" style="stop-color:#0033BF"/>
	</linearGradient>
	<linearGradient id="SVGID_2_" gradientUnits="userSpaceOnUse" x1="-0.5" y1="300" x2="600.5" y2="300">
		<stop  offset="0" style="stop-color:#0000FF"/>
		<stop  offset="1" style="stop-color:#1B1464"/>
	</linearGradient>
	<circle class="st0" cx="300" cy="300" r="300"/>
</g>
<g id="Layer_1">
	<g id="Oj2O62.tif">
		<g>
			<path class="st1" d="M448,380.4c-11.3,62.7-47.2,99-102.5,104.4c-34.8,3.3-68.4,0.1-100-15.4c-41.5-20.4-65.2-55.5-77.2-98.8
				c-13.3-48-11.3-95.7,7.4-142.2c3-7.5,7.1-14.6,11.5-23.6c-8.9,0-16.8,0-24.8,0c-4.2,0-8.5,0.4-12.6-0.2c-2-0.3-5-2.1-5.4-3.7
				c-0.4-1.5,2.1-3.8,3.4-5.6c1.2-1.6,3.8-3.1,3.8-4.7c0.3-14.7,0.2-29.4,0.2-44.3c-2.8-0.7-5-1.2-7.1-1.6c-2-6-0.4-8.5,6-8.4
				c13.2,0.3,26.3,0,39.5,0.2c2.2,0,6.1,1.5,6.3,2.6c0.4,3.9-0.2,7.9-0.6,11.8c-0.1,0.6-0.7,0.9-1.2,0.7l-6.1-3.1
				c-0.4-0.2-0.6-0.8-0.5-1.2l0.6-1.5c-7.3,0-14.6,0-22.6,0v19c5.1-1.3,12,5.5,14.8-5c0.2-0.7,2.5-1.4,3.4-1c1.2,0.5,2.5,2,2.6,3.3
				c0.4,3.4,0.6,6.9,0.1,10.2c-0.3,2.5-1.7,5-2.6,7.4c-1.9-1.9-3.8-3.8-7.1-7.1h-11.9c0,6.2,0,12.2,0,18.2c0,1,0.5,2.9,0.7,2.9
				c7.8,0,17.2,2.3,22.7-1.3c3.8-2.5,5.4-4.1,9.7-2c17.8-20.7,39.5-35.8,65.4-44.8c27.1-9.4,54.9-11.1,83.2-8.1
				c30.1,3.1,58.6,11.7,85.8,24.8c6.5,3.1,8.3,7.2,6.7,16.8c-3,17.4-3.2,35.2-0.5,52.7c2.3,14.5,0.3,17.8-8.9,17.7
				c-18-0.2-17.7,0-21.6-17.7c-7.1-31.7-23.2-56.6-56.7-63.9c-43.7-9.6-79.5,7.4-93.1,55.2c-4.9,17.3-7.9,35.5-8.9,53.4
				c-2.5,44.9-4.7,90,12.8,133c16.7,40.9,56.5,58.5,96.7,42.4c24.6-9.9,36.4-30.6,43.3-54.8c0.4-1.3,0.5-2.6,0.8-3.8
				c3.2-13.4,3.2-13.2,17.5-12.6C429.9,380.7,438.6,380.4,448,380.4z"/>
		</g>
	</g>
</g>
</svg>
