<?xml version="1.0" encoding="utf-8"?>
<!-- Generator: Adobe Illustrator 21.0.0, SVG Export Plug-In . SVG Version: 6.00 Build 0)  -->
<svg version="1.1" xmlns="http://www.w3.org/2000/svg" xmlns:xlink="http://www.w3.org/1999/xlink" x="0px" y="0px"
	 viewBox="0 0 600 600" style="enable-background:new 0 0 600 600;" xml:space="preserve">
<style type="text/css">
	.st0{fill:#FF6601;}
	.st1{fill:#FFFFFF;}
	.st2{fill:#231F20;}
</style>
<g id="Layer_2">
	<circle class="st0" cx="300" cy="300" r="300"/>
</g>
<g id="Capa_1">
	<g>
		<title>eleconomista</title>
		<path class="st1" d="M518.5,354.2c0-1.5-2.2-2.9-3.3-4.3c-1.1,1.3-2.8,2.5-3.1,4c-0.7,3.9-0.7,7.9-1,11.9
			c-3.1,38-21.6,60.1-57.9,68.2c-26.3,5.9-53,3.1-79.7,3.3c-0.3,0-0.6-0.5-0.9-0.8V292h24.1c18.8,0,33.4,9.3,39.1,27.1
			c2.4,9.6,4.1,19.5,4.9,29.4c0,1,0.3,2.1,0.5,3.7l6.3-0.3c0-41.6,0-82.6,0-123.7c0-1.4-3.1-2.8-4.9-4.2c-1.9,19.9-3.6,38-18.4,51.5
			c-14.7,13.6-34,9.5-51.8,10V155.6c21.4,0.7,42.3,0.6,63,2.3c16.3,1.3,31.9,6,43.6,18.7c12.6,13.7,16.9,30.8,19.6,48.6
			c0.8,5.5,0.7,5.5,6.3,4.6c0-26.5,0-53.1,0-79.9H271.6l0.3,6.5h33.7v281.2h-33.8v6h246.9c0-13.5,0-26.6,0-39.6
			C518.6,387.4,518.7,370.8,518.5,354.2z"/>
		<path class="st2" d="M253.7,382.2c-3.5,9.3-7.6,18.4-12.4,27.1c-10.2,18.8-29.9,30.6-51.3,30.7c-22.9,0.5-36.7-9.8-42.8-31.9
			c-4.9-18.3-3.5-37-3.7-55.6c0-9.8,0-9.8,9.8-9.8h105.2c-1.1-7.8-1.8-14.7-3.1-21.2c-7.2-38.3-40.1-66.4-79.1-67.5
			c-42.4,0-79.5,28.4-90.5,69.3c-1.9,7.2-2.9,14.7-4.4,22.1v13.3c1,5.4,1.9,10.8,3,16.2c14.2,68,85.4,88.5,132.4,66.7
			c26.6-12.3,39.1-35.5,45.1-63.2C256.7,376.4,255.2,378.6,253.7,382.2z M146.4,279c1.6-12.8,10.8-18.7,23.7-18.5
			c14.2,0,23,6.6,24.5,20.2c1.7,16.7,1.6,33.6,2.3,50.4c0,4.1-1.9,5.4-5.7,5.3c-7.1,0-14.2,0-21.3,0c-7.1,0-14.2,0-21.3,0
			c-1.8,0-4.9-2.3-4.9-3.5C144.4,314.7,144.4,296.8,146.4,279z"/>
	</g>
</g>
</svg>
