<?xml version="1.0" encoding="utf-8"?>
<!-- Generator: Adobe Illustrator 21.0.0, SVG Export Plug-In . SVG Version: 6.00 Build 0)  -->
<svg version="1.1" xmlns="http://www.w3.org/2000/svg" xmlns:xlink="http://www.w3.org/1999/xlink" x="0px" y="0px"
	 viewBox="0 0 600 600" style="enable-background:new 0 0 600 600;" xml:space="preserve">
<style type="text/css">
	.st0{fill:#FDF1E2;}
	.st1{fill:#4D4D4D;}
</style>
<g id="Layer_1">
	<circle class="st0" cx="300" cy="300" r="300"/>
</g>
<g id="Layer_2">
	<path class="st1" d="M296,450c-40.9,0-81.8,0-122.8-0.1c-2.1,0-4.2-2.1-6.3-3.2c1.7-2,3-5,5.1-5.7c8.9-3.2,18-5.8,27.1-8.4
		c4.6-1.3,6.1-3.6,6.1-8.5c-0.1-82.9-0.1-165.9,0-248.8c0-4.5-1.6-6.9-5.9-8.1c-8.5-2.4-16.9-5-25.3-7.7c-2-0.6-4.3-1.5-5.7-2.9
		c-2.9-2.8-1.7-5.8,2.4-6.4c1.9-0.3,4,0,5.9,0c76.8,0,153.6-0.1,230.4-0.1c8.7,0,8.6,0,9.1,8.7c1.7,28.3,3.5,56.6,5.3,85
		c0.2,3.8,0.3,7.9-4,8.4c-2.4,0.3-6.1-1.9-7.7-4.1c-14.2-19.3-27.8-39-42.3-58.1c-9.1-12.1-21.6-19.5-36.9-20.7
		c-17.5-1.4-35.1-2.1-52.6-3.3c-4.3-0.3-5.9,1.2-5.8,5.6c0.1,38.3,0,76.6,0.1,114.8c0,1.6,2.1,4.5,3.2,4.5
		c10.1-0.4,20.3-0.2,30.1-2.2c14.3-2.9,21.7-14.1,27.1-26.6c2.9-6.6,4.9-13.7,8.1-20.2c1.1-2.3,4.6-4.6,7.1-4.9
		c4.2-0.4,4.2,3.3,4.2,6.6c0,37.4,0,74.8,0.1,112.2c0,3.2,0.7,7.7-4,7.4c-2.7-0.2-6.3-2.8-7.6-5.3c-4.6-9-8-18.6-12.7-27.5
		c-6.6-12.7-17.6-19.3-31.9-20c-5.9-0.3-11.9-0.2-17.8-0.4c-4.1-0.2-6.1,1.4-6.1,5.7c0.1,37.4,0.1,74.8,0.1,112.2c0,4.2,1.8,6,6,5.8
		c19.5-1.1,39.1-1.8,58.6-3.4c20.3-1.6,35.9-12.2,48.3-27.8c12.3-15.5,24.4-31.1,36.5-46.9c2.3-3,4.8-6.2,8.5-3.9
		c2,1.3,3.6,5.3,3.4,7.9c-2.2,27.8-4.9,55.6-7.1,83.5c-0.5,6-3.6,7-8.7,7C376.9,449.9,336.4,449.9,296,450
		C296,449.9,296,450,296,450z"/>
</g>
</svg>
